<svg xmlns="http://www.w3.org/2000/svg" viewBox="0 0 600 320" width="600" height="320">
  <defs>
    <linearGradient id="body" x1="0%" y1="0%" x2="100%" y2="100%">
      <stop offset="0%" style="stop-color:#C0392B"/>
      <stop offset="100%" style="stop-color:#96281B"/>
    </linearGradient>
    <filter id="shadow"><feDropShadow dx="0" dy="20" stdDeviation="20" flood-color="rgba(0,0,0,0.4)"/></filter>
  </defs>
  <g filter="url(#shadow)">
    <path d="M80 220L100 155L150 125L220 108L370 106L440 128L490 158L515 220Z" fill="url(#body)" rx="10"/>
    <path d="M160 158L192 118L270 113L360 114L415 156Z" fill="#96281B"/>
    <path d="M175 156L196 122L268 117L268 154Z" fill="#AED6F1" opacity="0.85"/>
    <path d="M280 153L280 117L362 114L398 152Z" fill="#AED6F1" opacity="0.85"/>
    <rect x="74" y="215" width="448" height="22" rx="5" fill="#8B1A1A"/>
    <circle cx="165" cy="228" r="44" fill="#2C3E50"/>
    <circle cx="165" cy="228" r="30" fill="#7F8C8D"/>
    <circle cx="165" cy="228" r="16" fill="#BDC3C7"/>
    <circle cx="165" cy="228" r="7" fill="#2C3E50"/>
    <circle cx="430" cy="228" r="44" fill="#2C3E50"/>
    <circle cx="430" cy="228" r="30" fill="#7F8C8D"/>
    <circle cx="430" cy="228" r="16" fill="#BDC3C7"/>
    <circle cx="430" cy="228" r="7" fill="#2C3E50"/>
    <ellipse cx="512" cy="183" rx="18" ry="10" fill="#F1C40F" opacity="0.9"/>
    <ellipse cx="79" cy="183" rx="18" ry="10" fill="#F1C40F" opacity="0.9"/>
    <line x1="276" y1="118" x2="270" y2="215" stroke="#8B1A1A" stroke-width="2"/>
  </g>
</svg>
